<svg viewBox="0 0 800 1200" xmlns="http://www.w3.org/2000/svg">
    <!-- Header -->
    <rect x="0" y="0" width="800" height="80" fill="#f8f9fa"/>
    <rect x="20" y="20" width="120" height="40" fill="#dee2e6" rx="4"/> <!-- Logo -->
    <rect x="200" y="30" width="400" height="20" fill="#dee2e6" rx="2"/> <!-- Mega Menu -->
    
    <!-- Hero Banner -->
    <rect x="0" y="80" width="800" height="400" fill="#e9ecef"/>
    <rect x="100" y="200" width="400" height="40" fill="#dee2e6"/> <!-- Header -->
    <rect x="100" y="260" width="300" height="20" fill="#dee2e6"/> <!-- Tagline -->
    <rect x="100" y="300" width="150" height="40" fill="#495057" rx="20"/> <!-- CTA -->
    
    <!-- Product Categories -->
    <rect x="40" y="520" width="220" height="160" fill="#e9ecef" rx="8"/>
    <rect x="290" y="520" width="220" height="160" fill="#e9ecef" rx="8"/>
    <rect x="540" y="520" width="220" height="160" fill="#e9ecef" rx="8"/>
    
    <!-- Featured Products -->
    <g transform="translate(0,720)">
        <rect x="40" y="0" width="160" height="200" fill="#e9ecef" rx="8"/>
        <rect x="230" y="0" width="160" height="200" fill="#e9ecef" rx="8"/>
        <rect x="420" y="0" width="160" height="200" fill="#e9ecef" rx="8"/>
        <rect x="610" y="0" width="160" height="200" fill="#e9ecef" rx="8"/>
    </g>
    
    <!-- SEO Section -->
    <rect x="0" y="960" width="800" height="200" fill="#f8f9fa"/>
    <rect x="40" y="980" width="300" height="30" fill="#dee2e6"/> <!-- Header -->
    <rect x="40" y="1020" width="400" height="100" fill="#dee2e6"/> <!-- Text -->
    <rect x="480" y="980" width="280" height="140" fill="#e9ecef"/> <!-- Image -->
    
    <!-- Footer -->
    <rect x="0" y="1160" width="800" height="40" fill="#212529"/>
</svg>
